{"title":"Blindspot S01 720p BluRay HEVC 2CH x265","uid":15593872,"size":7752594549,"categoryP":"video","categoryS":"hd___tv_shows","magnet":"?xt=urn:btih:0428c3e76cbe3dd121ec6984e52f2715fbf08497&amp;dn=Blindspot+S01+720p+BluRay+HEVC+2CH+x265&amp;tr=udp%3A%2F%2Ftracker.leechers-paradise.org%3A6969&amp;tr=udp%3A%2F%2Fzer0day.ch%3A1337&amp;tr=udp%3A%2F%2Fopen.demonii.com%3A1337&amp;tr=udp%3A%2F%2Ftracker.coppersurfer.tk%3A6969&amp;tr=udp%3A%2F%2Fexodus.desync.com%3A6969","seeders":12,"leechers":4,"uploader":"nayhtut","files":46,"time":1471544274,"description":"[Screenshots]\r\n \nhttps://s4.postimg.org/3kffzjr1p/Blindspot_S01_E04_720p_Blu_Ray_HEVC_2_CH_x265_002.jpg \nhttps://s4.postimg.org/dvrss7ir1/Blindspot_S01_E02_720p_Blu_Ray_HEVC_2_CH_x265_001.jpg \nhttps://s4.postimg.org/kdapbpt4d/Blindspot_S01_E16_720p_Blu_Ray_HEVC_2_CH_x265_001.jpg \nhttps://s4.postimg.org/t9lhfnjql/Blindspot_S01_E14_720p_Blu_Ray_HEVC_2_CH_x265_006.jpg \nhttps://s4.postimg.org/k336sdei5/Blindspot_S01_E10_720p_Blu_Ray_HEVC_2_CH_x265_007.jpg \nhttps://s4.postimg.org/e3ffoptpp/Blindspot_S01_E09_720p_Blu_Ray_HEVC_2_CH_x265_005.jpg \nhttps://s4.postimg.org/t0nwpq6y5/Blindspot_S01_E07_720p_Blu_Ray_HEVC_2_CH_x265_008.jpg \nhttps://s4.postimg.org/if41dq0ml/Blindspot_S01_E05_720p_Blu_Ray_HEVC_2_CH_x265_007.jpg \nhttps://s4.postimg.org/roat1kywd/Blindspot_S01_E03_720p_Blu_Ray_HEVC_2_CH_x265_003.jpg \nhttps://s4.postimg.org/87q3f23sd/Blindspot_S01_E01_720p_Blu_Ray_HEVC_2_CH_x265_007.jpg\r\n\r\nSource:  Blindspot S01 1080p BluRay x264-MIXED  (Size: 75.6 GB)\r\n\r\nContains:  Blindspot Season One - Episode 01 to 23\r\n\r\n\r\nFormat                                   : Matroska\r\nFormat version                           : Version 4 / Version 2\r\nFile size                                : 7.22 GiB\r\nDuration                                 : Various\r\nOverall bit rate                         : 1 035 Kbps\r\nWriting application                      : Lavf57.25.100\r\nWriting library                          : Lavf57.25.100\r\n\r\nVideo\r\n\r\nID                                       : 1\r\nFormat                                   : V_MPEGH/ISO/HEVC\r\nCodec ID                                 : V_MPEGH/ISO/HEVC\r\nDuration                                 : 43mn 9s\r\nBit rate                                 : 823 Kbps\r\nWidth                                    : 1 280 pixels\r\nHeight                                   : 720 pixels\r\nDisplay aspect ratio                     : 16:9\r\nFrame rate                               : 25.000 fps\r\nBits/(Pixel*Frame)                       : 0.036\r\nStream size                              : 254 MiB (79%)\r\nWriting library                          : Lavc57.48.101 libx265\r\nLanguage                                 : English\r\nDefault                                  : Yes\r\nForced                                   : No\r\nDURATION                                 : 00:43:09.571000000\r\nNUMBER_OF_FRAMES                         : 62086\r\nNUMBER_OF_BYTES                          : 3028615924\r\n_STATISTICS_WRITING_APP                  : mkvmerge v8.3.0 ('Over the Horizon') 64bit\r\n_STATISTICS_WRITING_DATE_UTC             : 2016-08-03 02:24:50\r\n_STATISTICS_TAGS                         : BPS DURATION NUMBER_OF_FRAMES NUMBER_OF_BYTES\r\n\r\nAudio\r\n\r\nID                                       : 2\r\nFormat                                   : AC-3\r\nFormat/Info                              : Audio Coding 3\r\nMode extension                           : CM (complete main)\r\nFormat settings, Endianness              : Big\r\nCodec ID                                 : A_AC3\r\nDuration                                 : 43mn 9s\r\nBit rate mode                            : Constant\r\nBit rate                                 : 192 Kbps\r\nChannel(s)                               : 2 channels\r\nChannel positions                        : Front: L R\r\nSampling rate                            : 48.0 KHz\r\nBit depth                                : 16 bits\r\nCompression mode                         : Lossy\r\nStream size                              : 59.3 MiB (19%)\r\nWriting library                          : Lavc57.24.102 ac3\r\nLanguage                                 : English\r\nDefault                                  : Yes\r\nForced                                   : No\r\nDURATION                                 : 00:43:09.631000000\r\nNUMBER_OF_FRAMES                         : 242770\r\nNUMBER_OF_BYTES                          : 488453240\r\n_STATISTICS_WRITING_APP                  : mkvmerge v8.3.0 ('Over the Horizon') 64bit\r\n_STATISTICS_WRITING_DATE_UTC             : 2016-08-03 02:24:50\r\n_STATISTICS_TAGS                         : BPS DURATION NUMBER_OF_FRAMES NUMBER_OF_BYTES\r\n\r\nMenu\r\n\r\n00:00:00.000                             : :00:00:00.000\r\n00:06:46.156                             : :00:06:46.156\r\n00:15:01.984                             : :00:15:01.984\r\n00:25:53.385                             : :00:25:53.385\r\n00:32:39.124                             : :00:32:39.124\r\n00:37:28.079                             : :00:37:28.079\r\n00:42:31.132                             : :00:42:31.132\r\n\r\n\r\n__--__--__--__--__--__--__--__--__--__--__--__--__--\r\n\r\n\r\nIMDb: http://www.imdb.com/title/tt4474344\r\n\r\n\r\n__--__--__--__--__--__--__--__--__--__--__--__--__--\r\n\r\n\r\nAfter adding torrent with magnet link,\r\n\r\nplease add this  following trackers list to the torrent for better seeds.\r\n\r\n\r\nudp://tracker.coppersurfer.tk:6969/announce\r\n\r\nudp://tracker.opentrackr.org:1337/announce\r\n \nhttp://tracker.baravik.org:6970/announce\r\n \nhttp://tracker2.wasabii.com.tw:6969/announce\r\n\r\nudp://9.rarbg.me:2710/announce\r\n\r\n\r\n__--__--__--__--__--__--__--__--__--__--__--__--__--\r\n\r\nEnjoy!","torrent":{"xt":"urn:btih:0428c3e76cbe3dd121ec6984e52f2715fbf08497","amp;dn":"Blindspot+S01+720p+BluRay+HEVC+2CH+x265","amp;tr":["udp%3A%2F%2Ftracker.leechers-paradise.org%3A6969","udp%3A%2F%2Fzer0day.ch%3A1337","udp%3A%2F%2Fopen.demonii.com%3A1337","udp%3A%2F%2Ftracker.coppersurfer.tk%3A6969","udp%3A%2F%2Fexodus.desync.com%3A6969"],"infoHash":"0428c3e76cbe3dd121ec6984e52f2715fbf08497","infoHashBuffer":{"type":"Buffer","data":[4,40,195,231,108,190,61,209,33,236,105,132,229,47,39,21,251,240,132,151]},"announce":[],"urlList":[]}}